<svg width="320" height="302" viewBox="0 0 320 302" fill="none" xmlns="http://www.w3.org/2000/svg">
    <mask id="mask0_62_377" style="mask-type:alpha" maskUnits="userSpaceOnUse" x="0" y="0" width="320" height="302">
        <rect width="320" height="302" fill="#F2F6F7"/>
    </mask>
    <g mask="url(#mask0_62_377)">
        <path d="M318.193 82.7897H183.382L183.693 175.881C182.759 214.176 157.54 246.556 122.981 258.387C113.952 261.5 104.612 262.746 94.9602 262.746H1.24609V399.425H137.614C137.614 399.425 137.925 307.89 137.925 306.956C137.925 264.614 167.503 228.809 207.355 220.092C213.582 218.846 220.12 218.224 226.347 218.224L318.193 217.912C318.193 217.601 318.193 82.7897 318.193 82.7897Z" fill="white"/>
        <path d="M250.942 -142C212.647 -142 181.824 -111.177 181.824 -73.1933C181.824 -66.3438 183.381 -51.7107 183.381 -50.4653C183.381 -0.650467 142.906 39.5127 93.4028 39.5127C89.978 39.5127 86.2419 39.2014 82.8171 38.89C80.6377 38.2673 69.1181 37.3333 68.8067 37.3333C30.8229 37.6447 0 68.4676 0 106.451C0 144.435 30.8229 175.569 69.1181 175.569C107.413 175.569 138.236 144.747 138.236 106.451C138.236 103.027 137.613 89.6389 137.613 85.9028C137.613 36.0879 178.088 -4.38658 227.903 -4.38658C232.573 -4.38658 247.829 -4.07524 250.942 -4.07524C288.926 -4.07524 320.06 -34.8982 320.06 -72.8819C320.06 -110.866 288.926 -142 250.942 -142Z" fill="white"/>
    </g>
</svg>
