<svg width="533" height="876" viewBox="0 0 533 876" fill="none" xmlns="http://www.w3.org/2000/svg">
    <path d="M528.925 349.663H304.83L305.348 504.407C303.795 568.065 261.875 621.889 204.428 641.555C189.419 646.731 173.893 648.801 157.849 648.801H2.07031V876H228.752C228.752 876 229.27 723.844 229.27 722.291C229.27 651.906 278.436 592.389 344.681 577.898C355.032 575.828 365.9 574.793 376.251 574.793L528.925 574.275C528.925 573.758 528.925 349.663 528.925 349.663Z" fill="#F2F6F6"/>
    <path d="M417.136 -24C353.479 -24 302.243 27.2363 302.243 90.3761C302.243 101.762 304.83 126.086 304.83 128.156C304.83 210.963 237.55 277.725 155.262 277.725C149.569 277.725 143.358 277.208 137.665 276.69C134.043 275.655 114.894 274.102 114.376 274.102C51.2363 274.62 0 325.856 0 388.996C0 452.136 51.2363 503.889 114.894 503.889C178.551 503.889 229.787 452.653 229.787 388.996C229.787 383.303 228.752 361.049 228.752 354.838C228.752 272.032 296.032 204.752 378.838 204.752C386.601 204.752 411.961 205.27 417.136 205.27C480.276 205.27 532.03 154.033 532.03 90.8936C532.03 27.7539 480.276 -24 417.136 -24Z" fill="#F2F6F6"/>
</svg>
