<svg width="1520" height="500" viewBox="0 0 1520 500" fill="none" xmlns="http://www.w3.org/2000/svg">
    <mask id="mask0_0_1" style="mask-type:alpha" maskUnits="userSpaceOnUse" x="0" y="0" width="1520" height="500">
        <rect width="1520" height="500" rx="30" fill="#F2F6F7"/>
    </mask>
    <g mask="url(#mask0_0_1)">
        <path d="M1618.62 198.385H1458.82L1459.19 308.727C1458.08 354.119 1428.19 392.499 1387.23 406.522C1376.53 410.212 1365.46 411.689 1354.02 411.689H1242.94V573.696H1404.57C1404.57 573.696 1404.94 465.199 1404.94 464.092C1404.94 413.903 1440 371.464 1487.24 361.13C1494.62 359.654 1502.37 358.916 1509.75 358.916L1618.62 358.547C1618.62 358.178 1618.62 198.385 1618.62 198.385Z" fill="white"/>
        <path d="M1538.9 -68.0597C1493.51 -68.0597 1456.98 -31.5251 1456.98 13.4974C1456.98 21.6162 1458.82 38.961 1458.82 40.4371C1458.82 99.483 1410.85 147.089 1352.17 147.089C1348.11 147.089 1343.68 146.72 1339.62 146.351C1337.04 145.613 1323.39 144.505 1323.02 144.505C1277.99 144.875 1241.46 181.409 1241.46 226.432C1241.46 271.454 1277.99 308.358 1323.39 308.358C1368.78 308.358 1405.31 271.823 1405.31 226.432C1405.31 222.372 1404.57 206.504 1404.57 202.075C1404.57 143.029 1452.55 95.0546 1511.59 95.0546C1517.13 95.0546 1535.21 95.4236 1538.9 95.4236C1583.93 95.4236 1620.83 58.889 1620.83 13.8665C1620.83 -31.156 1583.93 -68.0597 1538.9 -68.0597Z" fill="white"/>
        <path d="M337.625 147.163H151.861L152.29 275.439C151.003 328.208 116.253 372.826 68.6322 389.129C56.1907 393.419 43.3202 395.135 30.0207 395.135H-99.1133V583.473H88.7959C88.7959 583.473 89.225 457.342 89.225 456.055C89.225 397.709 129.982 348.372 184.896 336.36C193.476 334.644 202.485 333.786 211.066 333.786L337.625 333.357C337.625 332.928 337.625 147.163 337.625 147.163Z" fill="white"/>
        <path d="M244.958 -162.587C192.189 -162.587 149.717 -120.114 149.717 -67.7744C149.717 -58.336 151.862 -38.1723 151.862 -36.4562C151.862 32.1865 96.0895 87.5296 27.8759 87.5296C23.1567 87.5296 18.0085 87.1006 13.2893 86.6715C10.2862 85.8135 -5.58743 84.5265 -6.01644 84.5265C-58.3565 84.9555 -100.829 127.428 -100.829 179.768C-100.829 232.108 -58.3565 275.01 -5.58743 275.01C47.1816 275.01 89.6542 232.537 89.6542 179.768C89.6542 175.049 88.7962 156.601 88.7962 151.453C88.7962 82.8104 144.568 27.0383 213.211 27.0383C219.646 27.0383 240.668 27.4673 244.958 27.4673C297.298 27.4673 340.2 -15.0054 340.2 -67.3454C340.2 -119.685 297.298 -162.587 244.958 -162.587Z" fill="white"/>
    </g>
</svg>
