<svg width="365" height="618" viewBox="0 0 365 618" fill="none" xmlns="http://www.w3.org/2000/svg">
    <path d="M362.87 256.352H209.13L209.485 362.515C208.42 406.187 179.66 443.113 140.249 456.605C129.952 460.156 119.3 461.576 108.293 461.576H1.4209V617.447H156.936C156.936 617.447 157.292 513.06 157.292 511.994C157.292 463.706 191.022 422.875 236.47 412.933C243.571 411.513 251.027 410.803 258.128 410.803L362.87 410.448C362.87 410.093 362.87 256.352 362.87 256.352Z" fill="#377E7F"/>
    <path d="M286.177 0C242.505 0 207.354 35.1508 207.354 78.4679C207.354 86.2792 209.129 102.967 209.129 104.387C209.129 161.196 162.972 206.999 106.518 206.999C102.612 206.999 98.3512 206.644 94.4455 206.289C91.9601 205.579 78.823 204.514 78.4679 204.514C35.1508 204.869 0 240.019 0 283.337C0 326.654 35.1508 362.159 78.823 362.159C122.495 362.159 157.646 327.009 157.646 283.337C157.646 279.431 156.936 264.163 156.936 259.903C156.936 203.093 203.093 156.936 259.903 156.936C265.229 156.936 282.626 157.291 286.177 157.291C329.494 157.291 365 122.14 365 78.8229C365 35.5058 329.494 0 286.177 0Z" fill="#9CCDF0"/>
</svg>
