<svg width="249" height="120" viewBox="0 0 249 120" fill="none" xmlns="http://www.w3.org/2000/svg">
    <g clip-path="url(#clip0_58_189)">
        <path d="M83.678 23.6505H72.0439V9.55859H75.3758V20.8103H81.9302V9.55859H85.262V20.8103H87.0098V26.6H83.7326V23.6505H83.678Z" fill="black"/>
        <path d="M103.068 17.4784H92.0896C92.1988 18.243 92.4173 18.8985 92.7996 19.4447C93.182 19.9909 93.6189 20.4278 94.1651 20.7009C94.7113 20.974 95.3121 21.1379 95.9676 21.1379C96.7869 21.1379 97.4423 20.974 97.9885 20.6463C98.5347 20.3186 98.9171 19.827 99.1355 19.2262H102.74C102.467 20.1001 102.085 20.9194 101.43 21.6295C100.829 22.3942 100.009 22.9404 99.0809 23.3773C98.1524 23.8143 97.1146 24.0328 95.9676 24.0328C94.6021 24.0328 93.3458 23.705 92.2534 23.0496C91.161 22.3942 90.2871 21.4656 89.6317 20.3186C88.9762 19.1716 88.7031 17.9153 88.7031 16.5498C88.7031 15.1843 89.0309 13.9281 89.6317 12.781C90.2871 11.634 91.161 10.7601 92.2534 10.0501C93.3458 9.33999 94.6021 9.06689 95.9676 9.06689C97.3331 9.06689 98.5893 9.39461 99.6271 10.0501C100.72 10.7055 101.539 11.5794 102.14 12.6718C102.74 13.7642 103.014 14.9658 103.014 16.2767C103.177 16.6591 103.123 17.0414 103.068 17.4784ZM99.791 14.9112C99.7364 14.365 99.5725 13.9281 99.1902 13.4911C98.8624 13.0542 98.3709 12.6718 97.8247 12.4533C97.2785 12.1802 96.6776 12.071 96.0222 12.071C95.1483 12.071 94.329 12.2895 93.6189 12.781C92.9089 13.2726 92.4173 13.9827 92.1988 14.9658H99.791V14.9112Z" fill="black"/>
        <path d="M105.854 9.55859H109.131V15.0206H115.467V9.55859H118.744V23.6505H115.467V18.0793H109.131V23.7052H105.854V9.55859Z" fill="black"/>
        <path d="M128.138 12.3442V18.5163C128.138 19.3356 128.302 19.9364 128.575 20.3187C128.849 20.7011 129.34 20.9195 129.996 20.9195H130.596V23.6505H129.395C127.865 23.6505 126.773 23.2136 126.008 22.3943C125.244 21.5204 124.861 20.2641 124.861 18.5709V12.3442H120.874V9.55859H131.962V12.3442H128.138Z" fill="black"/>
        <path d="M137.807 9.55854V11.9072C138.298 11.0333 139.008 10.3778 139.882 9.88626C140.756 9.39468 141.685 9.12158 142.668 9.12158C143.979 9.12158 145.126 9.4493 146.218 10.1047C147.256 10.7602 148.075 11.6887 148.676 12.8357C149.277 13.9828 149.55 15.239 149.55 16.6045C149.55 17.97 149.277 19.2263 148.676 20.3733C148.075 21.5203 147.256 22.3942 146.218 23.1043C145.18 23.8143 144.033 24.0874 142.722 24.0874C141.685 24.0874 140.756 23.869 139.937 23.3774C139.063 22.8858 138.408 22.2304 137.971 21.4111L138.025 23.0497V28.5117H134.693V9.55854H137.807ZM144.143 20.4825C144.798 20.1002 145.29 19.6086 145.672 18.9532C146.054 18.2977 146.218 17.5331 146.218 16.6045C146.218 15.7306 146.054 14.9659 145.672 14.3105C145.29 13.655 144.798 13.1088 144.143 12.7811C143.487 12.3988 142.832 12.2349 142.067 12.2349C141.302 12.2349 140.647 12.4534 139.991 12.8357C139.336 13.2181 138.844 13.7643 138.462 14.4197C138.08 15.0752 137.916 15.8398 137.916 16.6591C137.916 17.4784 138.08 18.2431 138.462 18.9532C138.844 19.6632 139.336 20.1548 139.991 20.5371C140.647 20.9195 141.302 21.0833 142.067 21.0833C142.832 21.0287 143.487 20.8649 144.143 20.4825Z" fill="black"/>
        <path d="M74.5562 49.431C73.4638 48.7756 72.5898 47.847 71.9344 46.7C71.279 45.553 71.0059 44.2967 71.0059 42.9312C71.0059 41.5657 71.3336 40.3095 71.9344 39.2171C72.5898 38.0701 73.4091 37.1415 74.5562 36.4861C75.6486 35.8307 76.9048 35.5029 78.2703 35.5029C79.472 35.5029 80.5097 35.7214 81.4929 36.213C82.476 36.7046 83.2953 37.3054 83.8962 38.1247C84.5516 38.944 84.9886 39.8725 85.2617 40.9103H81.9298C81.6021 40.1456 81.1652 39.5994 80.5097 39.1625C79.8543 38.7801 79.1442 38.5616 78.3249 38.5616C77.6149 38.5616 76.9594 38.7255 76.3586 39.1078C75.7578 39.4356 75.2662 39.9818 74.8839 40.6372C74.5015 41.2926 74.3377 42.0573 74.3377 42.9859C74.3377 43.8598 74.5015 44.6791 74.8839 45.3345C75.2662 45.99 75.7578 46.4815 76.3586 46.8639C76.9594 47.2462 77.6149 47.4101 78.3249 47.4101C79.1442 47.4101 79.9089 47.1916 80.5643 46.8093C81.2198 46.3723 81.6568 45.7715 81.9845 44.9522H85.3709C85.0978 46.0446 84.6608 47.0277 84.06 47.847C83.4046 48.6663 82.5853 49.3764 81.6021 49.8134C80.619 50.3049 79.5266 50.5234 78.3796 50.5234C76.9048 50.4688 75.7032 50.0865 74.5562 49.431Z" fill="black"/>
        <path d="M89.03 52.1074C89.5216 52.1074 89.9039 52.0528 90.2317 51.889C90.5594 51.7251 90.8325 51.5066 91.051 51.1789C91.2694 50.8512 91.4879 50.4142 91.7064 49.868L91.8703 49.3764L86.4629 35.9399H89.9586L93.2904 44.4607L93.6727 45.9354L94.0551 44.5153L97.3323 35.9946H100.883L95.2567 49.7042C94.7105 51.1243 94.1643 52.1621 93.6181 52.9267C93.0719 53.6368 92.4711 54.1284 91.761 54.4561C91.051 54.7292 90.177 54.8931 89.0846 54.8931H86.736V52.1621H89.03V52.1074Z" fill="black"/>
        <path d="M104.925 49.431C103.833 48.7756 102.959 47.847 102.304 46.7C101.648 45.553 101.375 44.2967 101.375 42.9312C101.375 41.5657 101.703 40.3095 102.304 39.2171C102.959 38.0701 103.778 37.1415 104.925 36.4861C106.018 35.8307 107.274 35.5029 108.639 35.5029C109.841 35.5029 110.879 35.7214 111.862 36.213C112.845 36.7046 113.664 37.3054 114.265 38.1247C114.921 38.944 115.358 39.8725 115.631 40.9103H112.244C111.917 40.1456 111.48 39.5994 110.824 39.1625C110.169 38.7801 109.459 38.5616 108.639 38.5616C107.929 38.5616 107.274 38.7255 106.673 39.1078C106.072 39.4356 105.581 39.9818 105.198 40.6372C104.816 41.2926 104.652 42.0573 104.652 42.9859C104.652 43.8598 104.816 44.6791 105.198 45.3345C105.581 45.99 106.072 46.4815 106.673 46.8639C107.274 47.2462 107.929 47.4101 108.639 47.4101C109.459 47.4101 110.223 47.1916 110.879 46.8093C111.534 46.3723 111.971 45.7715 112.299 44.9522H115.685C115.412 46.0446 114.975 47.0277 114.375 47.847C113.719 48.6663 112.9 49.3764 111.917 49.8134C110.933 50.3049 109.841 50.5234 108.694 50.5234C107.274 50.4688 106.018 50.0865 104.925 49.431Z" fill="black"/>
        <path d="M118.308 35.9399H131.253V50.0319H127.975V38.7256H121.585V49.9773H118.308V35.9399Z" fill="black"/>
        <path d="M135.294 33.2088C134.912 32.8265 134.748 32.3895 134.748 31.8433C134.748 31.2971 134.912 30.8602 135.294 30.4778C135.677 30.0955 136.168 29.9316 136.769 29.9316C137.424 29.9316 137.916 30.0955 138.298 30.4778C138.681 30.8602 138.845 31.2971 138.845 31.8433C138.845 32.3895 138.681 32.8811 138.298 33.2088C137.916 33.5366 137.424 33.755 136.769 33.755C136.114 33.755 135.622 33.5366 135.294 33.2088ZM135.13 35.9398H138.462V50.0318H135.13V35.9398Z" fill="black"/>
        <path d="M141.139 47.1916H141.739C142.286 47.1916 142.723 46.9732 142.996 46.5908C143.269 46.2085 143.433 45.6623 143.433 44.9522V35.9399H156.378V50.0319H153.046V38.7256H146.765V45.1161C146.765 46.2085 146.546 47.0824 146.109 47.8471C145.672 48.5571 145.126 49.158 144.361 49.4857C143.651 49.868 142.832 50.0319 141.958 50.0319H141.139V47.1916Z" fill="black"/>
        <path d="M163.533 35.9399V40.6919H168.176C169.05 40.6919 169.869 40.8557 170.579 41.2381C171.344 41.6204 171.944 42.112 172.381 42.8221C172.818 43.5321 173.037 44.3514 173.037 45.3346C173.037 46.2631 172.818 47.137 172.327 47.8471C171.89 48.5571 171.289 49.1033 170.524 49.4857C169.76 49.868 168.94 50.0319 168.066 50.0319H160.146V35.9399H163.533ZM168.94 46.9185C169.213 46.7547 169.432 46.5362 169.596 46.2631C169.76 45.99 169.814 45.6623 169.814 45.3346C169.814 44.843 169.65 44.406 169.323 44.0783C168.995 43.7506 168.558 43.5321 168.066 43.5321H163.533V47.1916H168.066C168.339 47.1916 168.667 47.0824 168.94 46.9185Z" fill="black"/>
        <path d="M175.985 35.9399H179.263V41.4019H185.598V35.9399H188.876V50.0319H185.598V44.406H179.263V50.0319H175.985V35.9399Z" fill="black"/>
        <path d="M195.376 49.4309C194.229 48.7755 193.355 47.847 192.7 46.6999C192.045 45.5529 191.717 44.2967 191.717 42.9312C191.717 41.5657 192.045 40.3094 192.7 39.1624C193.355 38.0154 194.229 37.1415 195.376 36.4314C196.523 35.7213 197.78 35.4482 199.2 35.4482C200.62 35.4482 201.876 35.776 203.023 36.4314C204.17 37.0868 205.044 38.0154 205.7 39.1624C206.355 40.3094 206.683 41.5657 206.683 42.9312C206.683 44.2967 206.355 45.5529 205.7 46.6999C205.044 47.847 204.17 48.7209 203.023 49.4309C201.876 50.0864 200.62 50.4141 199.2 50.4141C197.78 50.4687 196.523 50.0864 195.376 49.4309ZM201.33 46.8092C201.931 46.4268 202.422 45.9353 202.805 45.2252C203.187 44.5698 203.351 43.8051 203.351 42.9858C203.351 42.1665 203.187 41.4018 202.805 40.7464C202.422 40.0909 201.931 39.5447 201.33 39.1624C200.729 38.7801 200.019 38.6162 199.2 38.6162C198.435 38.6162 197.725 38.7801 197.07 39.1624C196.414 39.5447 195.923 40.0909 195.595 40.7464C195.212 41.4018 195.049 42.1665 195.049 42.9858C195.049 43.8051 195.212 44.5698 195.595 45.2252C195.977 45.8807 196.469 46.4268 197.07 46.8092C197.67 47.1915 198.38 47.3554 199.2 47.3554C199.964 47.3554 200.674 47.1915 201.33 46.8092Z" fill="black"/>
        <path d="M71.9893 62.2668H81.3839V65.0525H75.3211V76.3588H71.9893V62.2668Z" fill="black"/>
        <path d="M86.9005 62.2668V64.6155C87.392 63.7415 88.1021 63.0861 88.976 62.5945C89.8499 62.1029 90.7785 61.8298 91.7616 61.8298C93.0725 61.8298 94.2195 62.1576 95.3119 62.813C96.3497 63.4684 97.169 64.397 97.7698 65.544C98.3706 66.691 98.6437 67.9473 98.6437 69.3128C98.6437 70.6783 98.3706 71.9345 97.7698 73.0815C97.169 74.2286 96.3497 75.1025 95.3119 75.8125C94.2741 76.468 93.1271 76.7957 91.8162 76.7957C90.7785 76.7957 89.8499 76.5772 89.0306 76.0856C88.1567 75.5941 87.5013 74.9386 87.0643 74.1193L87.1189 75.7579V81.2199H83.7871V62.2668H86.9005ZM93.2364 73.1908C93.8918 72.8084 94.3834 72.3169 94.7657 71.6614C95.1481 71.006 95.3119 70.2413 95.3119 69.3128C95.3119 68.4388 95.1481 67.6742 94.7657 67.0187C94.3834 66.3633 93.8918 65.8171 93.2364 65.4894C92.5809 65.107 91.9255 64.9432 91.1608 64.9432C90.3961 64.9432 89.7407 65.1617 89.0852 65.544C88.4298 65.9263 87.9382 66.4725 87.5559 67.128C87.1736 67.7834 87.0097 68.5481 87.0097 69.3674C87.0097 70.1867 87.1736 70.9514 87.5559 71.6614C87.9382 72.3169 88.4298 72.8631 89.0852 73.2454C89.7407 73.6277 90.3961 73.7916 91.1608 73.7916C91.9255 73.737 92.6355 73.5731 93.2364 73.1908Z" fill="black"/>
        <path d="M104.106 75.8125C102.959 75.1571 102.085 74.2286 101.429 73.0815C100.774 71.9345 100.446 70.6783 100.446 69.3128C100.446 67.9473 100.774 66.691 101.429 65.544C102.085 64.397 102.959 63.5231 104.106 62.813C105.253 62.1029 106.509 61.8298 107.929 61.8298C109.349 61.8298 110.606 62.1576 111.753 62.813C112.9 63.4684 113.774 64.397 114.429 65.544C115.084 66.691 115.412 67.9473 115.412 69.3128C115.412 70.6783 115.084 71.9345 114.429 73.0815C113.774 74.2286 112.9 75.1025 111.753 75.8125C110.606 76.468 109.349 76.7957 107.929 76.7957C106.509 76.7957 105.253 76.468 104.106 75.8125ZM110.059 73.1362C110.66 72.7538 111.152 72.2622 111.534 71.5522C111.916 70.8967 112.08 70.1321 112.08 69.3128C112.08 68.4935 111.916 67.7288 111.534 67.0734C111.152 66.4179 110.66 65.8717 110.059 65.4894C109.459 65.107 108.749 64.9432 107.929 64.9432C107.165 64.9432 106.454 65.107 105.799 65.4894C105.144 65.8717 104.652 66.4179 104.324 67.0734C103.942 67.7288 103.778 68.4935 103.778 69.3128C103.778 70.1321 103.942 70.8967 104.324 71.5522C104.707 72.2076 105.198 72.7538 105.799 73.1362C106.4 73.5185 107.11 73.6824 107.929 73.6824C108.694 73.737 109.404 73.5185 110.059 73.1362Z" fill="black"/>
        <path d="M118.252 62.2668H121.256L125.844 68.275L130.487 62.2668H133.491V76.3588H130.214V67.5104L126.663 72.4262H125.079L121.584 67.4557V76.3042H118.307V62.2668H118.252Z" fill="black"/>
        <path d="M139.663 75.8126C138.625 75.1572 137.86 74.2286 137.26 73.0816C136.659 71.9346 136.386 70.6783 136.386 69.3128C136.386 67.9473 136.659 66.6911 137.26 65.5987C137.86 64.4517 138.625 63.5231 139.663 62.8677C140.646 62.2122 141.793 61.8845 143.049 61.8845C144.196 61.8845 145.234 62.1576 146.108 62.6492C146.982 63.1408 147.692 63.8508 148.129 64.7248V62.2669H151.297V76.3588H148.129V74.0101C147.692 74.8841 146.982 75.5941 146.108 76.0857C145.234 76.5773 144.196 76.8504 143.049 76.8504C141.793 76.7958 140.646 76.468 139.663 75.8126ZM145.89 73.1362C146.545 72.7539 147.037 72.2077 147.364 71.5522C147.692 70.8968 147.911 70.1321 147.911 69.3128C147.911 68.4935 147.747 67.7835 147.364 67.0734C146.982 66.418 146.49 65.8718 145.89 65.4894C145.234 65.1071 144.579 64.8886 143.814 64.8886C143.049 64.8886 142.339 65.0525 141.738 65.4348C141.083 65.8172 140.591 66.3087 140.264 66.9642C139.881 67.6196 139.718 68.3843 139.718 69.2582C139.718 70.1321 139.881 70.8968 140.264 71.6069C140.646 72.2623 141.138 72.8085 141.793 73.1362C142.449 73.5186 143.104 73.6824 143.869 73.6824C144.579 73.737 145.289 73.5186 145.89 73.1362Z" fill="black"/>
        <path d="M155.066 73.6278C155.721 72.8085 156.213 71.7707 156.595 70.6237C156.978 69.4767 157.251 68.0566 157.36 66.3633L157.633 62.2668H168.229V73.5732H169.595V79.4175H166.318V76.3588H157.196V79.4175H153.919V73.5732H155.066V73.6278ZM164.952 65.0525H160.528L160.364 67.4557C160.255 68.8212 160.036 70.0229 159.709 70.9514C159.381 71.9346 158.944 72.8085 158.343 73.5732H164.898V65.0525H164.952Z" fill="black"/>
        <path d="M175.002 75.8126C173.91 75.1572 173.036 74.2286 172.381 73.0816C171.725 71.9346 171.452 70.6783 171.452 69.3128C171.452 67.9473 171.78 66.6911 172.381 65.5987C172.982 64.5063 173.855 63.5231 175.002 62.8677C176.095 62.2122 177.351 61.8845 178.717 61.8845C179.918 61.8845 180.956 62.103 181.939 62.5946C182.922 63.0862 183.742 63.687 184.342 64.5063C184.998 65.3256 185.435 66.2541 185.708 67.2919H182.322C181.994 66.5272 181.557 65.981 180.901 65.5441C180.246 65.1617 179.536 64.9432 178.717 64.9432C178.007 64.9432 177.351 65.1071 176.75 65.4894C176.149 65.8172 175.658 66.3634 175.276 67.0188C174.893 67.6742 174.729 68.4389 174.729 69.3675C174.729 70.2414 174.893 71.0607 175.276 71.7161C175.658 72.3715 176.149 72.8631 176.75 73.2455C177.351 73.6278 178.007 73.7917 178.717 73.7917C179.536 73.7917 180.301 73.5732 180.956 73.1908C181.611 72.8085 182.048 72.1531 182.376 71.3338H185.763C185.489 72.4262 185.053 73.4093 184.452 74.2286C183.796 75.0479 182.977 75.758 181.994 76.1949C181.011 76.6865 179.918 76.905 178.771 76.905C177.351 76.7958 176.095 76.468 175.002 75.8126Z" fill="black"/>
        <path d="M191.717 62.2668V67.0188H196.359C197.233 67.0188 198.052 67.1826 198.762 67.565C199.527 67.9473 200.128 68.4389 200.565 69.149C201.002 69.859 201.22 70.6783 201.22 71.6615C201.22 72.59 201.002 73.4639 200.51 74.174C200.073 74.8841 199.473 75.4303 198.708 75.8126C197.943 76.1949 197.124 76.3588 196.25 76.3588H188.33V62.2668H191.717ZM197.124 73.3001C197.397 73.1362 197.615 72.9177 197.779 72.6446C197.943 72.3715 197.998 72.0438 197.998 71.7161C197.998 71.2245 197.834 70.7876 197.506 70.4598C197.179 70.1321 196.742 69.9136 196.25 69.9136H191.717V73.5732H196.25C196.523 73.5186 196.851 73.4639 197.124 73.3001Z" fill="black"/>
        <path d="M204.17 62.2668H207.502V67.5104H209.304L212.745 62.2668H216.678L212.035 68.8759L217.115 76.3588H213.018L209.468 70.7876H207.447V76.3588H204.115V62.2668H204.17Z" fill="black"/>
        <path d="M219.081 62.2668H222.413V71.006L229.186 62.2668H232.19V76.3588H228.858V67.6196L222.085 76.3588H219.081V62.2668Z" fill="black"/>
        <path d="M239.181 69.0943L234.702 62.2668H238.58L241.475 66.9095L244.37 62.2668H248.248L243.769 69.0943L248.466 76.3588H244.534L241.475 71.3884L238.361 76.3588H234.538L239.181 69.0943Z" fill="black"/>
        <path d="M72.1526 85.9171C71.7703 85.5347 71.6064 85.0978 71.6064 84.5516C71.6064 84.0054 71.7703 83.5684 72.1526 83.1861C72.535 82.8038 73.0266 82.6399 73.6274 82.6399C74.2828 82.6399 74.7744 82.8038 75.1567 83.1861C75.5391 83.5684 75.7029 84.0054 75.7029 84.5516C75.7029 85.0978 75.5391 85.5894 75.1567 85.9171C74.7744 86.2994 74.2828 86.4633 73.6274 86.4633C73.0266 86.4633 72.535 86.2994 72.1526 85.9171ZM71.9888 88.6481H75.3206V102.74H71.9888V88.6481Z" fill="black"/>
        <path d="M79.1982 88.6482H82.4754V94.1102H88.8114V88.6482H92.0886V102.74H88.8114V97.1143H82.4754V102.74H79.1982V88.6482Z" fill="black"/>
        <path d="M96.1312 85.9171C95.7488 85.5347 95.585 85.0978 95.585 84.5516C95.585 84.0054 95.7488 83.5684 96.1312 83.1861C96.5135 82.8038 97.0051 82.6399 97.6059 82.6399C98.2613 82.6399 98.7529 82.8038 99.1353 83.1861C99.5176 83.5684 99.6815 84.0054 99.6815 84.5516C99.6815 85.0978 99.5176 85.5894 99.1353 85.9171C98.7529 86.2994 98.2613 86.4633 97.6059 86.4633C97.0051 86.4633 96.5135 86.2994 96.1312 85.9171ZM96.0219 88.6481H99.3537V102.74H96.0219V88.6481Z" fill="black"/>
        <path d="M114.865 102.74H103.231V88.6482H106.563V99.8999H113.118V88.6482H116.449V99.8999H118.197V105.69H114.92V102.74H114.865Z" fill="black"/>
        <path d="M121.092 85.9171C120.71 85.5347 120.546 85.0978 120.546 84.5516C120.546 84.0054 120.71 83.5684 121.092 83.1861C121.474 82.8038 121.966 82.6399 122.567 82.6399C123.222 82.6399 123.714 82.8038 124.096 83.1861C124.479 83.5684 124.642 84.0054 124.642 84.5516C124.642 85.0978 124.479 85.5894 124.096 85.9171C123.714 86.2448 123.222 86.4633 122.567 86.4633C121.966 86.4633 121.474 86.2994 121.092 85.9171ZM120.928 88.6481H124.26V102.74H120.928V88.6481Z" fill="black"/>
        <path d="M130.378 102.139C129.34 101.484 128.575 100.555 127.975 99.4083C127.374 98.2613 127.101 97.005 127.101 95.6395C127.101 94.274 127.374 93.0177 127.975 91.9253C128.575 90.7783 129.34 89.8498 130.378 89.1943C131.361 88.5389 132.508 88.2112 133.764 88.2112C134.911 88.2112 135.949 88.4843 136.823 88.9759C137.697 89.4674 138.407 90.1775 138.844 91.0514V88.6481H142.012V102.74H138.844V100.391C138.407 101.265 137.697 101.975 136.823 102.467C135.949 102.959 134.911 103.232 133.764 103.232C132.508 103.177 131.416 102.849 130.378 102.139ZM136.659 99.5175C137.315 99.1352 137.806 98.589 138.134 97.9335C138.462 97.2781 138.68 96.5134 138.68 95.6941C138.68 94.8748 138.516 94.1648 138.134 93.4547C137.751 92.7993 137.26 92.2531 136.659 91.8707C136.004 91.4884 135.348 91.2699 134.584 91.2699C133.819 91.2699 133.109 91.4338 132.508 91.8161C131.853 92.1984 131.361 92.69 131.033 93.3455C130.651 94.0009 130.487 94.7656 130.487 95.6395C130.487 96.5134 130.651 97.2781 131.033 97.9881C131.416 98.6982 131.907 99.1898 132.563 99.5175C133.218 99.8452 133.873 100.064 134.638 100.064C135.294 100.064 136.004 99.8998 136.659 99.5175Z" fill="black"/>
        <path d="M150.369 91.4338V97.6059C150.369 98.4252 150.533 99.026 150.806 99.4083C151.079 99.7907 151.571 100.009 152.226 100.009H152.827V102.74H151.625C150.096 102.74 149.003 102.303 148.239 101.484C147.474 100.61 147.092 99.3537 147.092 97.6605V91.4338H143.104V88.6482H154.192V91.4338H150.369Z" fill="black"/>
        <path d="M156.869 88.6482H160.201V97.3874L166.974 88.6482H169.978V102.74H166.646V94.0009L159.873 102.74H156.869V88.6482Z" fill="black"/>
        <path d="M180.082 88.6482C181.065 88.6482 181.885 88.812 182.595 89.1398C183.305 89.4675 183.851 89.9044 184.233 90.5053C184.616 91.1061 184.78 91.8162 184.78 92.6355C184.78 93.2363 184.616 93.7278 184.288 94.274C183.96 94.8202 183.523 95.148 183.086 95.3118C183.796 95.5849 184.397 96.0219 184.889 96.5681C185.38 97.1689 185.599 97.8243 185.599 98.589C185.599 99.5176 185.38 100.337 184.943 100.938C184.506 101.593 183.906 102.03 183.196 102.303C182.486 102.576 181.666 102.74 180.847 102.74H173.965V88.6482H180.082ZM181.175 94.0009C181.448 93.7278 181.612 93.3455 181.612 92.9086C181.612 92.4716 181.448 92.1439 181.175 91.8708C180.902 91.5977 180.465 91.4884 179.973 91.4884H177.242V94.4379H180.082C180.519 94.3833 180.902 94.274 181.175 94.0009ZM181.83 99.5176C182.158 99.2445 182.322 98.8075 182.322 98.3159C182.322 97.8243 182.158 97.3874 181.83 97.1143C181.502 96.8412 181.065 96.6773 180.519 96.6773H177.242V99.9545H180.519C181.065 99.9545 181.502 99.7907 181.83 99.5176Z" fill="black"/>
        <path d="M55.8218 39.4355H32.1714L32.226 55.7669C32.0622 62.4852 27.638 68.1656 21.5751 70.2412C19.9912 70.7874 18.3526 71.0059 16.6594 71.0059H0.21875V94.984H24.1423C24.1423 94.984 24.1969 78.9258 24.1969 78.7619C24.1969 71.3336 29.3858 65.0523 36.3771 63.5229C37.4695 63.3045 38.6166 63.1952 39.709 63.1952L55.8218 63.1406C55.8218 63.086 55.8218 39.4355 55.8218 39.4355Z" fill="#377E7F"/>
        <path d="M44.0237 0C37.3054 0 31.898 5.40737 31.898 12.071C31.898 13.2726 32.1711 15.8398 32.1711 16.0583C32.1711 24.7974 25.0706 31.8434 16.386 31.8434C15.7852 31.8434 15.1297 31.7888 14.5289 31.7342C14.1466 31.6249 12.1256 31.4611 12.071 31.4611C5.40737 31.5157 0 36.9231 0 43.5867C0 50.2503 5.40737 55.7123 12.1256 55.7123C18.8439 55.7123 24.2513 50.305 24.2513 43.5867C24.2513 42.9859 24.142 40.6372 24.142 39.9818C24.142 31.2426 31.2426 24.142 39.9818 24.142C40.8011 24.142 43.4775 24.1966 44.0237 24.1966C50.6873 24.1966 56.1493 18.7893 56.1493 12.1256C56.1493 5.46199 50.6873 0 44.0237 0Z" fill="#9CCDF0"/>
    </g>
    <defs>
        <clipPath id="clip0_58_189">
            <rect width="248.848" height="120" fill="white"/>
        </clipPath>
    </defs>
</svg>
